<?xml version="1.0" encoding="UTF-8" standalone="no"?>
<svg width="16" height="16" viewBox="0 0 16 16" xmlns="http://www.w3.org/2000/svg">
  <defs>
    <!-- 左括号渐变 -->
    <linearGradient id="leftGradient" x1="0%" y1="0%" x2="100%" y2="0%">
      <stop offset="0%" style="stop-color:#FF6B6B"/>
      <stop offset="100%" style="stop-color:#4ECDC4"/>
    </linearGradient>
    <!-- 右括号渐变 -->
    <linearGradient id="rightGradient" x1="0%" y1="0%" x2="100%" y2="0%">
      <stop offset="0%" style="stop-color:#9B59B6"/>
      <stop offset="100%" style="stop-color:#2ECC71"/>
    </linearGradient>
    <!-- 边框渐变 -->
    <linearGradient id="borderGradient" x1="0%" y1="0%" x2="100%" y2="0%">
      <stop offset="0%" style="stop-color:#FF6B6B"/>
      <stop offset="50%" style="stop-color:#4ECDC4"/>
      <stop offset="100%" style="stop-color:#2ECC71"/>
    </linearGradient>
  </defs>

  <!-- 实心背景 -->
  <rect fill="#2a2a2a" x="0.5" y="0.5" width="15" height="15" rx="3" ry="3"/>

  <!-- 彩虹边框 -->
  <rect fill="none" stroke="url(#borderGradient)" stroke-width="1.5"
        x="0.5" y="0.5" width="15" height="15" rx="3" ry="3"/>

  <!-- { 符号 - 放大且简化 -->
  <path fill="url(#leftGradient)" d="M5 3.5c-.6 0-1 .4-1 1v1.5c0 .6-.4 1-1 1H2v2h1c.6 0 1 .4 1 1v1.5c0 .6.4 1 1 1h2v-1.5H5.5v-1c0-.6-.3-1-.8-1.2v-.6c.5-.2.8-.6.8-1.2v-1H7V3.5H5z"/>

  <!-- } 符号 - 放大且简化 -->
  <path fill="url(#rightGradient)" d="M9 3.5v1.5h1.5v1c0 .6.3 1 .8 1.2v.6c-.5.2-.8.6-.8 1.2v1H9v1.5h2c.6 0 1-.4 1-1v-1.5c0-.6.4-1 1-1h1v-2h-1c-.6 0-1-.4-1-1V4.5c0-.6-.4-1-1-1H9z"/>
</svg>